<svg xmlns="http://www.w3.org/2000/svg" width="256" height="256"><path fill-opacity=".016" d="M0 128.004v128.004l128.25-.254 128.25-.254.254-127.75L257.008 0H0v128.004m.485.496c0 70.4.119 99.053.265 63.672.146-35.38.146-92.98 0-128C.604 29.153.485 58.1.485 128.5" fill="#3f4d35" fill-rule="evenodd"/><path fill-opacity=".334" d="M.004 85.758c.04 31.726.302 38.539 1.644 42.742.879 2.75 1.993 5.428 2.475 5.95 1.327 1.438 1.082-.617-.663-5.565-.848-2.401-1.117-3.92-.598-3.375C4.582 127.317 7 136.006 7 140.38c0 4.339-1.487 6.604-5.198 7.917-1.542.545-1.704 3.298-1.772 30.155l-.074 29.556 128.272-.254L256.5 207.5l.199-80 .2-80-128.471.258-128.471.257.047 37.743M.453 84.5c0 20.35.133 28.533.296 18.185.163-10.349.162-26.999-.001-37C.585 55.683.452 64.15.453 84.5m112.845-19.096c-1.76.641-4.46 2.377-6 3.857-1.539 1.48-3.906 3.548-5.26 4.596-1.968 1.523-2.411 2.673-2.205 5.726.141 2.101.695 4.348 1.23 4.993.536.646.931 3.142.879 5.549-.172 7.865 1.282 16.303 3.251 18.875 6.407 8.368 7.807 10.363 7.807 11.124 0 .467-1.687 2.406-3.75 4.309-2.974 2.744-4.888 3.599-9.25 4.131-7.16.873-10.283 3.307-17.892 13.945-7.87 11.002-11.001 19.472-12.664 34.25l-.704 6.259 3.672 3.464c6.142 5.792 9.896 6.333 21.491 3.094 5.423-1.514 11.279-3.617 13.014-4.672 2.794-1.699 3.465-1.761 5.869-.543 1.493.757 7.214 2.672 12.714 4.257 8.989 2.591 11.468 2.88 24.52 2.864 17.034-.021 18.23-.525 23.98-10.112 1.925-3.209 5.69-7.917 8.366-10.462l4.866-4.627-1.101-6.89c-.605-3.79-1.568-9.918-2.141-13.617-1.844-11.925-4.656-19.399-8.265-21.973-2.85-2.034-4.39-2.301-13.245-2.301h-10.02l-5.195-4c-4.966-3.825-5.171-4.169-4.666-7.853.33-2.405 1.467-4.659 3.026-6.001 3.154-2.713 4.309-9.548 2.176-12.875-.801-1.249-2.249-4.746-3.218-7.771-3.35-10.461-6.494-13.326-19.083-17.394-5.657-1.828-7.644-1.861-12.202-.202m1.44 1c-2.07.629-4.904 2.374-6.299 3.878-1.395 1.505-3.639 3.458-4.988 4.342-2.541 1.665-3.449 6.941-1.535 8.926.895.928 2.068 10.47 2.146 17.45.029 2.539 1.535 5.727 5.489 11.612 5.397 8.034 6.616 11.734 4.199 12.744-.848.354-.421 1.265 1.327 2.833 1.418 1.271 3.586 3.773 4.818 5.56 1.946 2.823 2.526 3.109 4.422 2.183 1.968-.961 1.947-.876-.211.864-2.469 1.991-2.104 4.801.495 3.804.77-.296 1.399-.321 1.399-.057 0 .421-9.128 14.462-9.397 14.454-.057-.002-.253-3.66-.436-8.129l-.333-8.126 2.831.71c1.557.391 2.486.366 2.064-.056-1.035-1.035-7.83-3.362-9.872-3.381-.904-.008-1.913-.718-2.242-1.576-.536-1.398-.903-1.382-3.496.15-1.741 1.028-3.636 1.427-4.751.999-1.715-.658-1.667-.856.639-2.628 3-2.305 1.394-2.63-1.832-.37-1.867 1.308-2.05 1.856-1.03 3.085.769.926 2.215 1.299 3.798.981 6.825-1.374 6.509-1.564 7.208 4.344.358 3.025.696 8.476.75 12.114l.099 6.614-4.64.636c-7.311 1.002-8.383.858-7.659-1.028.401-1.044.242-1.419-.426-1.006-.586.362-1.321-.009-1.634-.824-.321-.835-.059-1.378.6-1.244.642.131 1.189-.287 1.214-.929.025-.641.455-1.541.955-2 .529-.484.609-.309.191.417-.902 1.568.61 1.639 2.148.101.865-.865 1.84-.726 3.95.56l2.801 1.708-2.389-2.083c-1.541-1.342-3.095-1.858-4.376-1.452-1.399.444-1.765.274-1.24-.577.569-.92.264-.948-1.287-.118-1.119.598-2.229 1.656-2.467 2.35-.238.693-.91-1.214-1.494-4.239-1.67-8.657-2.13-10.283-3.224-11.377-.697-.697-1.023-.463-1.023.736 0 1.125-.451 1.499-1.25 1.039-.687-.396-.237.394 1 1.755 2.574 2.832 2.961 5.847.75 5.847-.825 0-1.5.45-1.5 1s.418 1 .929 1c1.297 0 4.071 2.91 4.071 4.271 0 .799-.351.778-1.2-.071-.66-.66-1.885-1.2-2.723-1.2-.989 0-.656.593.95 1.692 3.156 2.159 3.946 3.329 3.926 5.808-.015 1.78-.151 1.824-1.235.404-2.965-3.886-13.551-6.602-15.218-3.904-1.358 2.198-2.333.819-1.371-1.939.728-2.089 1.508-2.785 2.698-2.406 1.313.419 1.378.323.299-.446-1.095-.781-.232-2.525 4.257-8.595 3.097-4.188 6.303-7.614 7.124-7.614.821 0 1.381-.506 1.243-1.125-.137-.619.313-1.331 1.001-1.584.767-.281 1.034.104.692.996-.316.824.166 1.733 1.111 2.095 1.298.498 1.506.249.938-1.121-.402-.968-.752-2.299-.778-2.957-.035-.891-.579-.92-2.131-.114-2.952 1.532-5.28 4.125-11.833 13.176-4.991 6.895-6.071 9.234-5.665 12.272.047.351-.334.914-.847 1.25-.985.646-3.707 11.62-4.704 18.967-.546 4.025-.325 4.606 2.92 7.667 5.811 5.48 8.746 5.932 19.119 2.946 4.91-1.414 10.8-3.468 13.089-4.566l4.163-1.996 11.925 3.931c14.768 4.868 19.737 5.573 32.915 4.675 12.381-.844 13.882-1.767 20.22-12.435 2.271-3.823 5.476-7.91 7.122-9.082 1.646-1.172 2.993-2.745 2.993-3.496C185 161.19 168.854 153 160.361 153c-3.752 0-9.361 2.433-9.361 4.061 0 .637-.646.678-1.75.111-.963-.494-4.385-1.194-7.605-1.556-3.22-.362-6.708-1.115-7.75-1.672-1.042-.558-1.895-.637-1.895-.177 0 .824-10.158 3.333-10.858 2.683-.717-.666 7.366-13.096 12.049-18.528 2.645-3.067 4.809-5.897 4.809-6.287 0-.39-2.7 1.124-6 3.365s-6 3.776-6 3.41c0-.365 3.375-4.447 7.5-9.071s7.535-8.954 7.579-9.623c.043-.669.012-4.021-.069-7.45-.131-5.565.14-6.5 2.516-8.703 3.869-3.586 4.822-8.92 2.4-13.439-1.059-1.977-1.939-4.501-1.954-5.609-.016-1.108-1.05-4.04-2.298-6.515-1.85-3.669-3.369-5.041-8.222-7.428-10.529-5.179-13.333-5.804-18.714-4.168M15 74.059c0 .582.45.781 1 .441s1-.816 1-1.059S16.55 73 16 73s-1 .477-1 1.059m133 46.87c1.925 1.716 4.4 3.589 5.5 4.163 2.383 1.242-1.398-2.044-6-5.215-2.538-1.749-2.461-1.587.5 1.052m-5.805 2.571c.02 1.65.244 2.204.498 1.231.254-.973.237-2.323-.037-3-.274-.677-.481.119-.461 1.769M0 123.559c0 .857.457 1.276 1.016.931.559-.346.758-1.047.441-1.559C.6 121.544 0 121.802 0 123.559m163-1.168c0 .214 1.543.57 3.43.791 1.886.22 3.21.044 2.941-.391-.484-.783-6.371-1.153-6.371-.4m-54.255 4.6c-1.97 2.195-3.282 4.157-2.914 4.359.368.202 2.125-1.594 3.905-3.991 4.031-5.43 3.673-5.563-.991-.368m47.813-2.084c-.309.498.34.671 1.441.383 2.335-.611 2.63-1.29.56-1.29-.793 0-1.693.408-2.001.907m15.074-.121c-.267.432.349.785 1.368.785 1.019 0 1.635-.353 1.368-.785-.268-.432-.883-.786-1.368-.786-.485 0-1.1.354-1.368.786m-7.666 2.739c-3.166 2.336-5.846 5.853-5.931 7.784-.019.445.415.531.965.191 1.677-1.036 3.251.493 2.026 1.968-.642.774 1.101.439 4.356-.839 3.799-1.49 4.93-2.314 3.772-2.744-1.431-.533-1.384-.696.346-1.217 1.1-.331-.025-.385-2.5-.121-3.203.343-4.068.194-3-.517.825-.55 1.085-1.006.579-1.015-.507-.008-1.744.73-2.75 1.64-1.006.91-1.829 1.166-1.829.568 0-1.94 5.47-5.171 7.055-4.168 1.226.776 1.231.917.028.93-.779.008-1.181.251-.893.539 1.014 1.013 3.677-.706 3.164-2.044-.301-.785-1.219-1.092-2.187-.73-1.451.544-1.489.406-.295-1.063 1.909-2.346 1.089-2.11-2.906.838m-13.466-.226c2.666.877 3.5 1.52 2.5 1.929-.825.338-1.05.643-.5.678 1.4.089 4.049-1.69 3.433-2.306-.279-.28-2.516-.758-4.971-1.062l-4.462-.554 4 1.315m-8.628 1.451c-1.243 1.586-1.208 1.621.378.378.963-.755 1.75-1.543 1.75-1.75 0-.823-.821-.294-2.128 1.372m35.159-1.25c0 .55.436 1.675.969 2.5.533.825.969 1.05.969.5s-.436-1.675-.969-2.5c-.533-.825-.969-1.05-.969-.5m-63.407 5.039c-.965 2.514-.681 3.163.498 1.136.584-1.004.851-2.036.593-2.293-.257-.258-.749.263-1.091 1.157m47.919 1.392c-.937 1.516 1.297 2.267 3.199 1.075 1.493-.935 1.4-1.003-.617-.447-1.612.445-2.155.299-1.691-.452.376-.609.459-1.107.184-1.107s-.759.419-1.075.931m17.577.569c-.049 1.1.559 3.8 1.351 6 1.802 5 1.852 1.447.057-4-.758-2.3-1.356-3.15-1.408-2m-178.064 4c-.007.55.868 2.125 1.944 3.5s1.966 1.987 1.978 1.361c.012-.627-.863-2.202-1.945-3.5-1.081-1.299-1.971-1.911-1.977-1.361m161.048 1.648c-5.877 2.532-4.657 3.428 1.419 1.042 2.633-1.034 4.38-2.118 3.882-2.408-.498-.29-2.883.324-5.301 1.366m-15.669-.253c.372.602 1.606 1.592 2.741 2.199 1.48.792 1.874.795 1.389.011-.372-.602-1.606-1.592-2.741-2.199-1.48-.792-1.874-.795-1.389-.011m9.629.605c-.079 1.664-.257 1.748-1.064.5-.835-1.293-.971-1.266-.985.191-.008.93.438 1.971.992 2.313 1.206.746 2.394-1.908 1.666-3.721-.291-.725-.556-.414-.609.717m21.536 2.1c-.356.927-.422 1.911-.147 2.186.275.275.791-.259 1.147-1.186.356-.927.422-1.911.147-2.186-.275-.275-.791.259-1.147 1.186m-6.1 1.4c.34.55 1.068 1 1.618 1s.722-.45.382-1c-.34-.55-1.068-1-1.618-1s-.722.45-.382 1M26 147.833c0 2.292.422 4.167.937 4.167.519 0 .679-1.673.359-3.75-.802-5.193-1.296-5.352-1.296-.417m14.345-2.29c-.326.849-.369 1.767-.096 2.04.274.273.737-.422 1.03-1.543.624-2.383-.069-2.751-.934-.497m79.386.377c-.435 1.663-.305 2.054.437 1.312.582-.582.86-1.647.62-2.369-.25-.749-.703-.295-1.057 1.057m15.997-1.198c1.775.221 4.925.224 7 .008 2.074-.217.622-.397-3.228-.402-3.85-.004-5.548.173-3.772.394M47.5 146c.34.55 1.266 1 2.059 1 .793 0 1.441-.45 1.441-1s-.927-1-2.059-1c-1.132 0-1.781.45-1.441 1m99.5-.607c0 .216.698.661 1.552.989.89.341 1.291.173.941-.393-.587-.951-2.493-1.406-2.493-.596m4.6 1.372c.605.404 1.357 1.41 1.671 2.235.382 1.002.597.753.65-.75.053-1.512-.495-2.245-1.671-2.235-1.079.01-1.328.297-.65.75m11.65-.076c.963.252 2.537.252 3.5 0 .963-.251.175-.457-1.75-.457s-2.713.206-1.75.457M161 149c1.375.44 3.625.792 5 .782 2.246-.017 2.195-.096-.5-.782-1.65-.42-3.9-.772-5-.782-1.567-.015-1.459.155.5.782M.158 151c0 1.375.227 1.938.504 1.25.278-.687.278-1.812 0-2.5-.277-.687-.504-.125-.504 1.25m21.342-1c-.34.55-.141 1 .441 1S23 150.55 23 150s-.198-1-.441-1-.719.45-1.059 1m11.075 1.059c-2.516 2.537-1.099 2.498 2.152-.059 1.399-1.1 1.92-1.973 1.158-1.941-.762.033-2.251.933-3.31 2m5.884-.992c-.363.586-.445 1.281-.183 1.543s.743-.218 1.069-1.067c.676-1.762.1-2.072-.886-.476m96.291 1.595c.688.278 1.813.278 2.5 0 .688-.277.125-.504-1.25-.504s-1.937.227-1.25.504m17.917.005c-.367.366-.667 1.131-.667 1.7 0 .626.466.567 1.183-.15.651-.651.951-1.416.667-1.7-.284-.285-.817-.217-1.183.15m-108.011 1.878c.304.794.956 1.195 1.449.89 1.24-.766 1.126-1.132-.554-1.777-.967-.371-1.265-.076-.895.887M180.5 154c.995 1.1 2.035 2 2.31 2 .275 0-.315-.9-1.31-2-.995-1.1-2.035-2-2.31-2-.275 0 .315.9 1.31 2m-4 0c.34.55.816 1 1.059 1s.441-.45.441-1-.477-1-1.059-1-.781.45-.441 1M.439 181c0 15.125.139 21.313.309 13.75.169-7.562.169-19.937 0-27.5-.17-7.562-.309-1.375-.309 13.75m181.787-22.426c.95.994 2.001 1.533 2.336 1.197.335-.335-.442-1.148-1.726-1.807-2.233-1.145-2.26-1.118-.61.61" fill="#3f4d35" fill-rule="evenodd"/><path fill-opacity=".24" d="M18.222 52.734l-7.279 4.588-5.221-3.643L.5 50.036l-.296 8.232c-.32 8.895-.562 8.391 6.481 13.521l2.529 1.843-3.107 3.107C4.203 78.644 3 80.866 3 82.482c0 1.531-.426 2.373-1.016 2.008-.559-.346-.777-1.016-.484-1.49.293-.474.11-1.123-.406-1.442-.571-.353-.982 6.967-1.05 18.692l-.111 19.271 3.042 5.617c4.328 7.99 5.726 15.607 3.613 19.691-.893 1.728-2.694 3.411-4.002 3.739l-2.378.597-.148 29.417L-.088 208h103.955l.417-2.75.416-2.75.15 2.73.15 2.73 40.75-.053c35.543-.046 40.502-.236 38.809-1.48-2.594-1.907-.954-1.878 8.88.156l7.653 1.582 4.536-3.716c2.495-2.044 4.836-4.444 5.204-5.333.367-.889 1.171-1.709 1.786-1.822 2.168-.399 33.943-2.285 38.584-2.289l4.703-.005.313 6.25c.172 3.438.306-29.525.297-73.25l-.015-79.5-60.75-.266c-37.92-.166-60.75.092-60.75.685 0 .523.482 2.218 1.072 3.766.59 1.548 1.747 6.19 2.571 10.315.825 4.125 2.817 10.731 4.428 14.68 1.611 3.95 2.929 7.797 2.929 8.55 0 .754.54 1.91 1.199 2.569.932.932 1.813-1.94 3.956-12.894 3.676-18.784 7.545-26.385 12.469-24.496 3.822 1.467 12.645 29.889 14.913 48.038l.693 5.553 4.635.132c4.019.114 4.223.214 1.54.75-3.024.604-3.053.662-1.25 2.543 1.47 1.533 1.845 1.616 1.845.408 0-1.909 6.189-3.833 12.331-3.833 3.667 0 4.829.431 5.737 2.127 1.371 2.562.812 3.008-6.745 5.385-3.152.991-7.513 1.534-10.702 1.331-5.038-.321-5.374-.2-5.251 1.894.086 1.487.633 2.089 1.63 1.795 3.605-1.062 22.109-3.756 22.579-3.287.285.286.246 1.604-.087 2.93-.557 2.218-1.377 2.513-10.298 3.697-11.752 1.559-14.166 3.082-5.144 3.244 6.569.118 6.436.212-2.842 2.015-4.788.93-5.229 1.235-4.626 3.199.367 1.193.766 2.288.889 2.433.122.145 2.779-.868 5.904-2.25 4.756-2.104 7.216-2.513 15.094-2.513 9.797 0 11.669.694 8.757 3.246-3.259 2.857-7.738 4.545-15.526 5.852l-7.8 1.309-2.559-2.954c-1.933-2.232-2.162-2.342-.936-.453.893 1.375 1.915 3.175 2.272 4 .357.825 1.459 2.672 2.45 4.105 1.8 2.601 1.799 2.603-.662 2.133-3.666-.701-3.015.252 2.285 3.34 2.613 1.522 6.331 4.03 8.264 5.573 1.933 1.542 4.988 3.099 6.789 3.46 3.68.736 3.724 2.284.118 4.124-3.325 1.697-8.418 1.576-9.921-.235-.685-.825-1.885-1.5-2.666-1.5-.799 0-1.293-.766-1.128-1.75.216-1.288-.499-1.839-2.706-2.088-1.65-.187-3.562-.804-4.25-1.373-.935-.774-1.25-.472-1.25 1.198 0 1.962.423 2.182 3.5 1.823 4.238-.495 4.505.842 1 5.008-1.375 1.634-2.488 3.356-2.473 3.826.015.471 1.281-.656 2.814-2.504l2.787-3.36 4.631 2.11c2.547 1.161 5.646 2.11 6.886 2.11 1.754 0 1.988.267 1.055 1.2-.66.66-1.171 2.123-1.137 3.25.06 1.934.115 1.923.968-.2 1.349-3.356 2.969-2.718 2.969 1.168 0 4.606-.875 6.582-2.916 6.582-.935 0-5.5-1.387-10.143-3.082-11.683-4.266-14.173-3.51-19.834 6.019-2.262 3.807-5.789 8.304-7.838 9.992L164.544 192h-14.113c-9.225 0-15.727-.486-18.772-1.402L127 189.196l-.1 4.152c-.079 3.317-.237 3.658-.785 1.693-1.017-3.648-9.06-7.47-15.721-7.47-2.914 0-5.568.27-5.898.6-.712.712-.833 6.307-.212 9.829.242 1.375.246 1.713.009.75-.541-2.189-.113-2.216-10.55.655L85 201.811v-4.965c0-3.22-.37-4.736-1.053-4.313-1.595.986-11.801-4.38-13.625-7.165-2.659-4.057-.592-20.617 3.921-31.409.814-1.947 3.977-7.02 7.028-11.273 4.446-6.196 5.676-8.77 6.194-12.959.355-2.875 1.154-7.702 1.775-10.727.621-3.025 1.021-5.91.89-6.412-.232-.887 3.371-20.458 6.552-35.588.867-4.125 3.093-12.17 4.947-17.877 1.854-5.708 3.371-10.545 3.371-10.75 0-.205-6.66-.373-14.8-.373-10.455 0-15.195.367-16.147 1.25-1.084 1.006-1.199.99-.591-.08 1.307-2.303-9.605-1.205-11.524 1.16-1.103 1.359-2.205 1.72-3.75 1.23-1.203-.382-2.188-1.1-2.188-1.596s-.675-.642-1.5-.326c-.825.317-1.5.078-1.5-.531 0-.759-4.32-1.084-13.75-1.034l-13.75.073-7.278 4.588m97.885 1.458c-4.988 10.918-5.069 10.505 1.959 9.997 3.75-.271 6.514-.009 7.208.685.619.619 1.936 1.126 2.926 1.126 2.134 0 2.214-1.764.501-11l-1.207-6.5-4.252-.308-4.253-.308-2.882 6.308M.355 58.5c-.003 4.95.166 7.101.376 4.78.209-2.321.212-6.371.005-9-.206-2.629-.378-.73-.381 4.22m79.307-2.882c-1.562.846-2.585 1.792-2.275 2.103.311.31 1.261-.014 2.113-.721.852-.707 1.801-1.032 2.11-.724.809.81-3.475 2.925-4.562 2.254-.957-.592-8.071 2.431-8.016 3.405.017.311 2.062 1.797 4.543 3.304 2.621 1.59 5.051 4.019 5.797 5.794l1.285 3.056 1.323-4.295c.728-2.361 1.395-4.969 1.483-5.794.088-.825.695-2.483 1.348-3.684 1.628-2.991 1.491-4.986-.393-5.709-1.894-.727-1.326-.848-4.756 1.011M55.232 61c0 1.925.206 2.712.457 1.75.252-.962.252-2.538 0-3.5-.251-.962-.457-.175-.457 1.75m104.854 7.598c-2.17 7.258-4.26 24.548-3.07 25.402.383.275 1.014 3.363 1.402 6.862.642 5.777.512 6.499-1.408 7.843-1.163.815-1.925 2.002-1.693 2.638.232.636-.282 1.964-1.141 2.95-1.443 1.654-1.414 1.738.38 1.075 1.069-.394 2.334-1.368 2.811-2.163 1.232-2.054 2.598.306 2.618 4.526l.015 3.231 4.35-.597c2.613-.358 5.243-.118 6.586.601 1.229.658 2.401 1.031 2.603.829.767-.767-3.665-43.568-5.104-49.295-.856-3.407-2.54-7.038-3.896-8.402l-2.389-2.402-2.064 6.902M24.323 65.313c-1.003 1.272-2.723 2.833-3.823 3.469-1.1.637-1.437 1.171-.75 1.188.687.016 2.082.862 3.1 1.88 1.799 1.799 1.964 1.781 6.095-.658l4.246-2.508-3.041-2.842C28.477 64.279 26.892 63 26.627 63c-.265 0-1.302 1.041-2.304 2.313M114 66.962c-1.375.434-4.892 3.012-7.816 5.727-4.77 4.43-5.243 5.239-4.612 7.874.388 1.615.98 3.387 1.316 3.937.337.55.661 3.25.722 6 .205 9.354 1.893 15.789 5.466 20.836 6.225 8.794 6.913 10.135 6.919 13.481.008 4.981 4.355 10.183 8.509 10.183 2.817 0 4.178-1.04 9.884-7.557 6.298-7.193 6.587-7.745 5.994-11.453-.919-5.752.287-10.348 3.64-13.855 3.293-3.446 3.964-8.248 1.63-11.662-.742-1.085-1.624-3.402-1.961-5.149-1.412-7.332-4.487-11.803-10.057-14.623-2.933-1.486-6.05-2.701-6.925-2.701s-1.869-.45-2.209-1c-.718-1.162-6.871-1.185-10.5-.038m-50.554 4.125c-.369.598-.171 1.588.441 2.2.817.817 1.113.528 1.113-1.087 0-2.415-.519-2.787-1.554-1.113M16.69 72.154c-2.094 1.171-2.196 3.438-.19 4.208 2.232.856 4.5-.334 4.5-2.362 0-2.215-2.068-3.101-4.31-1.846M34.195 73.5c.02 1.65.244 2.204.498 1.231.254-.973.237-2.323-.037-3-.274-.677-.481.119-.461 1.769M17 75.059c0 .582.45.781 1 .441s1-.816 1-1.059S18.55 74 18 74s-1 .477-1 1.059M59.28 91.36c-23.097 14.835-22.649 14.491-21.17 16.273.624.752 1.867 1.372 2.762 1.378.896.006 3.189 1.617 5.098 3.581 2.818 2.9 3.991 3.466 6.25 3.014 1.529-.306 2.781-.23 2.782.169.002.399 1.445.778 3.208.842 2.324.085 3.967 1.03 5.98 3.441l2.775 3.324 2.384-2.24c1.803-1.694 2.682-4.119 3.601-9.941 1.321-8.364 4.947-25.326 6.616-30.951.204-.687.048-1.246-.347-1.242-.396.004-9.368 5.563-19.939 12.352M.419 102c0 10.725.147 15.112.327 9.75.179-5.362.179-14.138 0-19.5-.18-5.362-.327-.975-.327 9.75m234.776-16.5c.02 1.65.244 2.204.498 1.231.254-.973.237-2.323-.037-3-.274-.677-.481.119-.461 1.769M24 90.535c-3.025 1.86-5.95 3.604-6.5 3.876-.55.271.575 1.75 2.5 3.286s4.963 4.214 6.752 5.95c1.788 1.736 3.502 2.751 3.809 2.255.306-.496 1.236-.902 2.065-.902 1.243 0 5.823-2.868 9.709-6.08 2.334-1.929-7.581-12.083-11.564-11.843-.699.042-3.746 1.598-6.771 3.458m-2.861 3.498C19.841 95.115 19.076 96 19.439 96 20.444 96 26 93.015 26 92.474c0-1.117-2.681-.257-4.861 1.559m6.32 3.003c-1.781 1.174-2.338 1.953-1.4 1.957 1.867.008 5.664-2.603 4.899-3.369-.297-.296-1.871.339-3.499 1.412m128.793 4.464c.011 2.2.216 2.982.455 1.738.239-1.244.23-3.044-.02-4s-.446.062-.435 2.262m23.906 6.5c0 1.375.227 1.938.504 1.25.278-.687.278-1.812 0-2.5-.277-.687-.504-.125-.504 1.25M63.25 109.115c-3.409 2.183-4.512 3.649-1.5 1.993 2.294-1.261 5.889-4.04 5.25-4.059-.275-.009-1.963.921-3.75 2.066m88.622.635c-1.243 1.586-1.208 1.621.378.378.963-.755 1.75-1.543 1.75-1.75 0-.823-.821-.294-2.128 1.372m-46.737 8.549c.111 4.786.489 8.701.838 8.701s2.065-1.475 3.813-3.279l3.178-3.279-3.459-4.864c-1.903-2.676-3.71-5.116-4.016-5.422-.307-.307-.466 3.358-.354 8.143m46.846-5.776c-1.057 1.273-.995 1.42.378.893.902-.347 1.641-1.032 1.641-1.523 0-1.286-.579-1.105-2.019.63M33.58 114.87c-.307.497.112 1.459.931 2.139 1.211 1.005 1.489.944 1.489-.328 0-1.866-1.631-3.087-2.42-1.811m172.968 1.793c-.448 1.788-.158 3.156.894 4.207 1.411 1.411 1.558 1.213 1.558-2.097 0-4.441-1.535-5.762-2.452-2.11m-51.516 2.587c-.021 1.792.491 2.75 1.468 2.75 1.893 0 1.903-1.085.032-3.559-1.406-1.859-1.47-1.825-1.5.809m-118.299.874c.679.684 1.486.991 1.793.683.308-.308-.247-.867-1.233-1.243-1.425-.542-1.54-.428-.56.56m145.346 2.459c.048 1.165.285 1.402.604.605.289-.722.253-1.585-.079-1.917-.332-.332-.568.258-.525 1.312m-49.701 12.253c-4.528 2.926-7.621 7.368-6.736 9.674.312.813 1.001 1.211 1.531.883.53-.327.713-1.248.407-2.046-.307-.798-.19-1.224.259-.946.719.444 6.499-5.756 8.531-9.151.957-1.6.907-1.58-3.992 1.586m50.364-1.245c-.325.326.045 2.688.822 5.25.778 2.563 1.465 6.234 1.527 8.159l.113 3.5 1.016-3.157c.8-2.485.62-4.189-.843-8-1.022-2.664-1.75-5.181-1.618-5.593.289-.899-.2-.975-1.017-.159M109.5 148.293V160.5l-7.953.891c-5.842.655-8.056.583-8.34-.271-.66-1.978-5.912-4.12-10.102-4.12-5.971 0-8.609 2.931-10.529 11.697-1.695 7.74-1.987 13.127-.811 14.926 1.53 2.338 8.622 6.377 11.198 6.377 3.571 0 17.679-4.266 22.876-6.918 3.936-2.008 4.336-2.034 7.904-.509 2.066.884 8.032 2.911 13.257 4.506 8.493 2.591 10.953 2.899 23.215 2.91l13.715.011 3.569-3.133c3.778-3.318 14.501-20.355 14.501-23.042 0-.873-1.479-2.716-3.286-4.094-7.298-5.566-21.056-7.609-25.85-3.839-2.285 1.797-2.833 1.818-10.885.408-6.594-1.155-9.552-1.242-13.305-.393-8.666 1.962-9.457 1.182-5.181-5.111 2.313-3.405 2.537-7.551.334-6.189-.53.327-.724 1.219-.431 1.982.293.763-.014 1.28-.682 1.149s-1.152.545-1.077 1.501c.075.957-.218 1.52-.652 1.251-.435-.268-1.726.974-2.871 2.761l-2.08 3.249-.017-9.191c-.018-9.64-.033-9.679-4.017-10.628l-2.5-.595v12.207m13.138-9.793c-.316.825-.194 1.5.271 1.5s1.406-.675 2.091-1.5c1.013-1.221.963-1.5-.271-1.5-.833 0-1.774.675-2.091 1.5M51 141.198c.825.807 3.793 3.105 6.595 5.106l5.095 3.638 3.405-2.585c3.511-2.666 3.299-2.746-1.236-.464-2.455 1.235-3.091 1.029-9-2.917-3.498-2.335-5.684-3.585-4.859-2.778m-25.549 6.799c.031 2.503.516 3.998 1.299 4 .792.002 1.25-1.462 1.25-3.997 0-2.613-.45-4-1.299-4-.856 0-1.282 1.361-1.25 3.997m14.214-1.074c-.321 1.608-1.587 3.858-2.813 5-2.169 2.021-2.174 2.077-.201 2.077 1.48 0 2.386-1.082 3.349-4 .726-2.2 1.698-4 2.16-4 .462 0 .84-.45.84-1 0-2.356-2.802-.739-3.335 1.923m6.766-1.811c-.708 1.146 1.192 2.846 3.212 2.873 1.313.017 2.515-2.494 1.621-3.387-.998-.999-4.102-.669-4.833.514M21 148.5c0 1.375.563 2.5 1.25 2.5.688 0 1.25-1.125 1.25-2.5s-.562-2.5-1.25-2.5c-.687 0-1.25 1.125-1.25 2.5m91-.5c0 .55.477 1 1.059 1s.781-.45.441-1-.816-1-1.059-1-.441.45-.441 1M.079 150.583c.048 1.165.285 1.402.604.605.289-.722.253-1.585-.079-1.917-.332-.332-.568.258-.525 1.312m32.671-.191c-2.146 1.629-2.24 2.608-.25 2.608.825 0 1.5-.45 1.5-1s.675-1 1.5-1 1.5-.45 1.5-1c0-1.393-2.162-1.193-4.25.392m9.666-.142c.321.688.86 2.037 1.2 3 .652 1.849 3.384 2.454 3.384.75 0-.55-.398-1-.883-1-.486 0-1.119-.9-1.407-2-.287-1.1-1.052-2-1.7-2-.647 0-.914.563-.594 1.25m5.648.25c0 .55.662 1.876 1.472 2.946 1.142 1.511 1.739 1.679 2.668.75.928-.928.896-1.196-.144-1.196-.737 0-1.937-.787-2.668-1.75-.731-.963-1.328-1.3-1.328-.75m5.436.5c.34.55.816 1 1.059 1s.441-.45.441-1-.477-1-1.059-1-.781.45-.441 1m5 0c.34.55.816 1 1.059 1s.441-.45.441-1-.477-1-1.059-1-.781.45-.441 1m144.235 2.105c1.779 1.14 3.804 1.871 4.5 1.626.696-.245-.477-1.184-2.607-2.088-5.183-2.199-5.81-2.046-1.893.462m-83.276-.038c-.363.586-.445 1.281-.183 1.543s.743-.218 1.069-1.067c.676-1.762.1-2.072-.886-.476M55 154c0 .55.702 1 1.559 1s1.281-.45.941-1c-.34-.55-1.041-1-1.559-1s-.941.45-.941 1m5.5 0c-.34.55.11 1 1 1s1.34-.45 1-1c-.34-.55-.79-1-1-1-.21 0-.66.45-1 1m51.5 1.5c0 .825.787 1.464 1.75 1.421 1.056-.048 1.252-.28.494-.585-.691-.279-1.002-.918-.691-1.421.311-.503.088-.915-.494-.915s-1.059.675-1.059 1.5M.438 181.5c-.001 14.85.138 21.064.309 13.81.171-7.255.171-19.405.001-27-.17-7.596-.31-1.66-.31 13.19m116.434-23.75c-1.243 1.586-1.208 1.621.378.378 1.666-1.307 2.195-2.128 1.372-2.128-.207 0-.995.787-1.75 1.75m-50.827 1.531c.025.671.663 2.569 1.419 4.219l1.374 3 .081-3.643c.053-2.373-.442-3.844-1.419-4.219-.836-.32-1.48-.036-1.455.643m121.047 20.959l-.145 7.991 4.277 4.22c2.352 2.321 5.19 5.485 6.308 7.032 1.94 2.687 2.251 2.773 6.918 1.915 2.687-.494 5.063-1.432 5.28-2.084.618-1.859-3.91-4.265-10.864-5.774-5.955-1.292-6.1-1.386-2.242-1.461 2.269-.043 5.978.575 8.243 1.374 4.033 1.423 4.131 1.404 4.711-.907 1.203-4.795-4.28-9.715-12.281-11.02l-4.203-.686.953 3.323c1.503 5.242 1.013 6.742-.763 2.337-.887-2.2-2.439-5.194-3.449-6.654-2.323-3.36-2.363-4.634-.08-2.568.965.873 4.115 1.901 7 2.284 4.804.637 5.245.528 5.245-1.296 0-1.54-1.193-2.345-5.25-3.544-10.319-3.05-9.493-3.522-9.658 5.518m.158 11.511c.31 1.239.155 2-.343 1.691-.499-.308-.907-.083-.907.499s1.125 1.059 2.5 1.059c3.069 0 3.173-1.095.343-3.595-2.139-1.889-2.152-1.886-1.593.346M156 197.496c0 2.742.499 4.75 1.25 5.025 1.676.615 12.971-2.966 12.101-3.836-1.252-1.253 4.224-.707 5.672.565.783.688.579.238-.455-1-2.213-2.651-1.005-2.945 2.375-.577 1.314.92 2.059 1.14 1.657.488-.482-.78.315-1.394 2.334-1.798 1.686-.337 3.066-1.037 3.066-1.555 0-.519-.983-.631-2.185-.249-2.657.843-9.071 1.003-10.371.258-2.418-1.384-6.554-1.724-8.76-.719-1.79.816-2.992.807-4.558-.03-2.024-1.084-2.126-.919-2.126 3.428m9.733-.372c.679.684 1.486.991 1.793.683.308-.308-.247-.867-1.233-1.243-1.425-.542-1.54-.428-.56.56m-55.463 6.807c.08 1.062.482 1.722.894 1.468.412-.255.495-1.124.185-1.931-.781-2.036-1.252-1.834-1.079.463" fill="#3f4d35" fill-rule="evenodd"/><path fill-opacity=".858" d="M18.719 53.083l-7.78 5.043-4.854-3.563C3.416 52.603.931 51 .564 51c-.368 0-.533 2.335-.366 5.188.301 5.177.317 5.198 7.255 10.142 4.012 2.858 7.113 4.471 7.333 3.812.209-.628.845-1.142 1.413-1.142.568 0 3.118-1.511 5.667-3.358 2.549-1.847 8.909-5.867 14.134-8.933 15.432-9.055 15.337-8.644 2-8.657l-11.5-.012-7.781 5.043m44.031-.353C56.607 56.848 56 57.563 56 60.686c0 2.033-.408 3.18-1 2.814-.55-.34-1-1.491-1-2.559S53.64 59 53.201 59c-.44 0-.616 1.575-.391 3.5.25 2.142-.022 3.5-.701 3.5-.61 0-1.109-1.125-1.109-2.5 0-4.02-1.984-2.872-2.16 1.25-.159 3.719-.163 3.723-.565.481C47.721 60.755 46 62.183 46 67.118c0 2.412-.397 3.755-1 3.382-.55-.34-1-1.743-1-3.118 0-3.937-1.981-1.711-2.16 2.427l-.16 3.691-.403-3.25C40.705 65.646 39 66.208 39 71c0 2.2-.45 4-1 4s-1-1.377-1-3.059c0-4.365-1.971-2.638-2.132 1.868l-.131 3.691-.619-3.271-.618-3.271-3.5 2.335a229.605 229.605 0 01-7.144 4.536l-3.643 2.203-5.857-4.828C6.628 69.657 1 65.633 1 66.37c0 .278 2.025 1.96 4.5 3.737 2.475 1.778 4.499 3.493 4.497 3.813-.001.319-1.35 1.48-2.997 2.58-2.281 1.523-2.995 2.761-2.997 5.191C4 85.227 2.258 87.017.904 84.878.387 84.062.023 90.638.011 101l-.02 17.5 3.552 7.009c4.677 9.229 5.589 16.827 2.489 20.741-1.197 1.512-3.044 2.75-4.105 2.75-2.129 0-2.657 2.566-.677 3.292 1 .366 1 .723 0 1.783C.315 155.066 0 162.033 0 181.7V208h104v-4.833c0-2.659-.243-5.076-.539-5.373-.296-.296-4.234.548-8.75 1.877-7.02 2.064-9.41 2.319-16.476 1.752-4.546-.364-8.492-1.03-8.77-1.48-.278-.45-.542-7.649-.585-15.998-.052-9.861-.529-16.277-1.36-18.312-2.737-6.698-2.809-7.633-.587-7.633 1.862 0 2.067-.601 2.067-6.068v-6.068l-2.904 2.068c-1.598 1.137-3.177 2.068-3.509 2.068-.333 0-4.935-3.15-10.227-7-11.857-8.626-10.703-9.278 1.525-.862l8.917 6.139 3.097-2.205c1.703-1.213 3.3-3.187 3.548-4.388.831-4.01 2.508-21.062 2.111-21.459-.215-.215-1.336.553-2.491 1.708l-2.1 2.1-3.087-3.517c-3.189-3.632-8.172-4.857-9.218-2.266-.301.747-.536.545-.583-.5-.054-1.194-.898-1.75-2.656-1.75-1.556 0-3.823-1.246-5.723-3.146-1.73-1.731-4.283-3.45-5.673-3.822-6.574-1.758-3.719-4.177 28.195-23.892 6.447-3.982 11.903-7.556 12.123-7.941.221-.384-.393-2.539-1.363-4.788-1.204-2.793-3.224-5.012-6.371-7-2.534-1.601-4.608-3.136-4.609-3.411 0-.275 3.453-2.424 7.674-4.775 5.239-2.918 8-3.949 8.699-3.25 1.837 1.837 3.116 1.089 4.231-2.475l1.096-3.5h-6.923c-5.147 0-7.352.43-8.6 1.679-1.572 1.571-1.7 1.571-2.002 0-.472-2.451-1.918-1.983-9.427 3.051m73.176-2.425c.487 1.282 1.844 6.801 3.015 12.263 1.17 5.463 3.055 11.929 4.187 14.37 1.132 2.44 2.302 5.939 2.6 7.774.298 1.835.899 3.557 1.335 3.827 1.013.626 1.348-.61 3.94-14.539 2.307-12.399 4.508-18.436 7.777-21.338 6.237-5.534 11.924 5.368 17.709 33.951 1.435 7.088 2.82 13.9 3.079 15.137.454 2.175.852 2.25 11.925 2.25h11.456l1.566 3.029c.862 1.667 1.337 3.402 1.055 3.858-.281.455-3.236 1.405-6.565 2.112-7.89 1.674-7.062 2.462 1.042.992 5.732-1.039 6.418-.97 8.209.821 1.469 1.468 1.79 2.701 1.294 4.961-.636 2.893-.971 3.059-8.855 4.367l-8.195 1.36 10.715.548c5.893.302 10.966.8 11.274 1.107 1.094 1.095-.736 3.835-3.838 5.744-2.355 1.45-16.857 5.101-20.261 5.101-1.21 0 .035 2.676 3.132 6.732 2.649 3.47 4.791 5.06 8.645 6.417 2.818.992 5.894 2.501 6.834 3.352 1.026.929 2.43 1.271 3.513.855 1.605-.615 1.715-.315 1.007 2.726-1.329 5.708-.877 7.808 2.908 13.508 5.124 7.718 10.933 13.068 15.022 13.835 3.67.688 13.552-1.242 20.415-3.988l4.134-1.654V118.18l-3.873-4.84c-4.884-6.103-8.464-9.378-14.007-12.814l-4.38-2.715.683-12.656C235.174 71.254 236.769 60 237.989 60c1.561 0 12.543 7.924 13.769 9.936.693 1.135 1.93 2.064 2.75 2.064 1.239 0 1.492-2.026 1.492-11.963V48.074l-60.48-.05-60.481-.05.887 2.331M61 67.05l-2.5 2.005 2.75-1.188c1.513-.653 2.75-1.566 2.75-2.028 0-1.14-.139-1.084-3 1.211m52.874.245c-1.444.663-4.707 3.062-7.25 5.331-3.595 3.208-4.624 4.808-4.624 7.191 0 1.686.505 3.377 1.123 3.759.703.435.923 2.42.587 5.309-.328 2.818-.018 5.783.795 7.615l1.333 3 .089-3.5c.07-2.779.643-3.757 2.78-4.75 1.481-.687 3.277-1.25 3.992-1.25.716 0 1.301-.45 1.301-1 0-1.55-3.297-1.181-5.931.664l-2.376 1.665.563-4.203C107.367 78.846 112.36 75 122 75c7.109 0 12 2.197 12 5.39 0 1.371.501 2.802 1.113 3.18.613.378 2 2.691 3.083 5.139 1.929 4.362 2.009 4.415 3.969 2.642 2.199-1.991 2.108-5.068-.341-11.485-2.324-6.092-2.985-6.594-16.108-12.238-4.43-1.906-8.184-2.011-11.842-.333m-53.51 4.199c-.316.822-.976 1.246-1.469.941-.492-.304-.888.486-.88 1.756.009 1.27.346 1.859.75 1.309s2.085-1.02 3.735-1.045c2.313-.034 3.073-.549 3.32-2.25.259-1.79-.17-2.205-2.282-2.205-1.43 0-2.859.672-3.174 1.494M49.455 83.716c-10.562 6.651-9.898 6.175-9.359 6.714.237.236 4.249-2.013 8.917-4.999 4.668-2.985 8.937-5.592 9.487-5.793.55-.2.755-.633.455-.963-.299-.329-4.574 1.94-9.5 5.041m74.045.997c-4.8 1.155-3.364 2.202 2.745 2.002 5.128-.168 6.348-.49 5.543-1.465-1.025-1.24-4.444-1.462-8.288-.537M23.265 90.268c-3.979 2.328-7.241 4.491-7.25 4.809-.008.317 2.645 2.504 5.897 4.859 3.252 2.356 6.162 5.239 6.467 6.406.44 1.683.811 1.868 1.788.891.678-.678 1.795-1.233 2.483-1.233.687 0 3.486-1.662 6.221-3.694l4.971-3.695-1.881-3.687c-1.134-2.223-3.655-4.727-6.349-6.305-2.457-1.441-4.613-2.611-4.79-2.601-.177.01-3.578 1.923-7.557 4.25m30.548-2.585c.721.289 1.584.253 1.916-.079.332-.332-.258-.568-1.312-.525-1.165.048-1.402.285-.604.604M50 90c0 .55.45 1 1 1s1-.45 1-1-.45-1-1-1-1 .45-1 1m76 .469c0 .894.586 1.243 1.5.893.825-.317 1.5-.978 1.5-1.469 0-.491-.675-.893-1.5-.893s-1.5.661-1.5 1.469M46 92c0 .55.675 1 1.5 1s1.5-.45 1.5-1-.675-1-1.5-1-1.5.45-1.5 1m-2 2c0 .55.477 1 1.059 1s.781-.45.441-1-.816-1-1.059-1-.441.45-.441 1m67 0c-.793.49-1.11 1.223-.704 1.629.405.406 1.262.213 1.904-.429 1.511-1.511.668-2.354-1.2-1.2m8.465 9.952c-1.119.453-2.694 1.628-3.5 2.61-1.353 1.648-1.274 1.726 1.035 1.018 1.375-.422 3.85-.974 5.5-1.228 1.65-.253 4.125-.726 5.5-1.05l2.5-.589-2.5-.757c-3.324-1.006-6.06-1.007-8.535-.004m-13.59 11.407c-.069 2.003-.196 4.204-.283 4.891-.088.688.277 1.553.81 1.924.597.415.459 1.289-.359 2.274-2.475 2.982-.556 2.41 3.075-.917l3.611-3.309-3.365-4.252-3.364-4.251-.125 3.64m-72.504-.885c-.424 1.107.249 2.6 1.931 4.283 2.129 2.128 2.848 2.364 4.085 1.337 1.183-.982 1.27-1.753.411-3.639-.6-1.316-1.494-2.143-1.988-1.838-.494.306-1.548.016-2.342-.644-1.153-.956-1.576-.855-2.097.501m149.179 1.459c.556.547 2.402.589 4.45.103l3.5-.831-4.45-.103c-2.766-.063-4.09.251-3.5.831m-145.944 1.483c.335.871 1.047 1.584 1.584 1.584 1.315 0 .492-2.273-1.003-2.771-.731-.244-.954.214-.581 1.187M108 121c0 .55.45 1 1 1s1-.45 1-1-.45-1-1-1-1 .45-1 1m25.86 13.75c-3.171 3.829-4.313 5.606-3.157 4.912 1.278-.767 5.72-6.662 5.02-6.662-.227 0-1.065.787-1.863 1.75m-23.845 12.461c.009 5.659.444 10.964.967 11.789.628.992.784-.958.459-5.75-.476-7.023-.42-7.25 1.784-7.235 1.836.013 1.985.203.775.985-.825.533-1.013.976-.418.985.653.009 1.049 2.196 1 5.515-.045 3.025.256 5.5.668 5.5.896 0 .942-.565.761-9.167-.127-6.041-1.718-14.79-1.925-10.583a1.829 1.829 0 01-1.836 1.735c-1.115-.01-1.337-.282-.611-.75.826-.533.757-1.09-.25-2.024-1.179-1.095-1.387.265-1.374 9m13.652-9.544c-.367.366-.667 1.131-.667 1.7 0 .626.466.567 1.183-.15.651-.651.951-1.416.667-1.7-.284-.285-.817-.217-1.183.15m-12.417 5.583c.228.688 1.164 1.395 2.079 1.573 1.16.225 1.481-.154 1.061-1.25-.71-1.849-3.753-2.162-3.14-.323m-86.583.5c-1.002 1.665.901 8.75 2.35 8.75.816 0 1.438-.562 1.383-1.25-.055-.687-.167-2.825-.25-4.75-.099-2.311-.639-3.5-1.591-3.5-.793 0-1.644.338-1.892.75m15.583-.042c-.687.252-1.25 1.546-1.25 2.875s-.916 3.333-2.036 4.453c-1.926 1.926-1.904 3.964.042 3.964.489 0 2.055-2.322 3.481-5.161 2.492-4.961 2.409-7.101-.237-6.131m85.25.292c.34.55.816 1 1.059 1s.441-.45.441-1-.477-1-1.059-1-.781.45-.441 1M46 145.883c0 2.32 3.516 3.405 5.049 1.558 1.538-1.853.333-3.441-2.608-3.441-1.724 0-2.441.553-2.441 1.883m-25.296-.186c-.264.442-.417 1.928-.342 3.303.203 3.674 3.138 3.284 3.138-.417 0-2.772-1.772-4.601-2.796-2.886m11.386 4.376c-1.716 1.429-2.101 2.316-1.337 3.08 1.248 1.248 6.164-1.838 6.216-3.903.046-1.834-2.128-1.467-4.879.823m9.405-1.065c-.342.554.081 1.711.941 2.571.86.86 1.564 1.982 1.564 2.492 0 .511.675.929 1.5.929s1.5-.675 1.5-1.5-.398-1.5-.883-1.5c-.486 0-1.119-.9-1.407-2-.559-2.14-2.194-2.644-3.215-.992m78.61 1.796c-.622 1.162-.619 2.319.006 3.25.839 1.247.95 1.24.812-.054-.317-2.967.096-4.107 1.232-3.405.715.443.883.275.44-.44-.966-1.565-1.36-1.462-2.49.649M47 150.778c0 1.045 3.771 4.222 5.011 4.222 1.474 0 1.212-.777-1.011-3-2.033-2.033-4-2.634-4-1.222m5-.33c0 .247 1.085 1.619 2.41 3.05 1.751 1.889 2.621 2.261 3.178 1.36.429-.694.248-1.413-.411-1.632-.647-.216-1.177-1.03-1.177-1.809 0-.78-.9-1.417-2-1.417s-2 .202-2 .448m6 .552c0 .55.45 1 1 1s1 .675 1 1.5.675 1.5 1.5 1.5 1.5-.45 1.5-1-.45-1-1-1-1-.675-1-1.5-.675-1.5-1.5-1.5-1.5.45-1.5 1m123.814 21.044c-.927.541-3.292 3.627-5.254 6.857-1.962 3.23-5.366 7.498-7.564 9.483-2.198 1.986-3.996 3.765-3.996 3.953 0 .189 3.037.883 6.75 1.543 5.528.984 7.474.949 10.75-.188l4-1.389.284-10.652c.258-9.669.119-10.648-1.5-10.621-.981.017-2.543.473-3.47 1.014M128 198.893V208h11.435c6.289 0 12.589-.439 14-.975 2.413-.918 2.565-1.386 2.565-7.919v-6.943l-12.25-.38c-6.738-.209-13.037-.744-14-1.188-1.598-.739-1.75-.017-1.75 8.298" fill="#3f4d35" fill-rule="evenodd"/></svg>